<svg width="181" height="56" viewBox="0 0 181 56" fill="none" xmlns="http://www.w3.org/2000/svg">
<g clip-path="url(#clip0_6511_24)">
<g clip-path="url(#clip1_6511_24)">
<mask id="mask0_6511_24" style="mask-type:luminance" maskUnits="userSpaceOnUse" x="0" y="5" width="66" height="51">
<path d="M65.7428 5.1792H0.447266V55.4065H65.7428V5.1792Z" fill="white"/>
</mask>
<g mask="url(#mask0_6511_24)">
<path opacity="0.8" d="M49.3734 38.6143C55.5903 39.2582 61.3783 32.5564 62.3012 23.6456C63.2241 14.7347 58.9325 6.98899 52.7156 6.34508C46.4988 5.70118 40.7108 12.4029 39.7879 21.3138C38.865 30.2247 43.1565 37.9704 49.3734 38.6143Z" fill="#FDC040"/>
<path d="M40.0553 42.886C45.9702 40.8665 48.4187 32.3566 45.5241 23.8786C42.6295 15.4005 35.488 10.1648 29.5731 12.1843C23.6583 14.2037 21.2098 22.7136 24.1044 31.1917C26.9989 39.6697 34.1404 44.9054 40.0553 42.886Z" fill="#FDC040"/>
<path d="M23.0492 32.8042H63.2904C63.6116 32.9437 64.3503 33.4739 64.7356 34.4784C65.2174 35.7341 66.5795 54.1508 43.5587 50.3837C25.4454 50.3837 21.2188 49.8256 21.3794 49.5466C24.7235 48.7095 25.142 45.361 25.5606 42.8497C25.9792 40.3383 23.0492 32.8042 23.0492 32.8042Z" fill="#81B13D"/>
<path d="M53.2846 15.5865C52.7562 15.5865 52.3281 16.0148 52.3281 16.543V16.6958C52.3281 17.2242 52.7562 17.6523 53.2846 17.6523C53.813 17.6523 54.2411 17.2242 54.2411 16.6958V16.543C54.2411 16.0147 53.813 15.5865 53.2846 15.5865Z" fill="#253D4E"/>
<path d="M55.769 19.8538C55.2407 19.8538 54.8125 20.2819 54.8125 20.8102V20.963C54.8125 21.4913 55.2407 21.9195 55.769 21.9195C56.2974 21.9195 56.7255 21.4914 56.7255 20.963V20.8102C56.7255 20.2819 56.2974 19.8538 55.769 19.8538Z" fill="#253D4E"/>
<path d="M34.8246 18.9556L34.7537 18.82C34.5093 18.3516 33.9312 18.1701 33.4633 18.4147C32.995 18.6592 32.8136 19.2369 33.058 19.7052L33.1288 19.8407C33.2992 20.1677 33.6325 20.355 33.9774 20.355C34.1266 20.355 34.2778 20.32 34.4192 20.2461C34.8875 20.0016 35.069 19.4239 34.8246 18.9556Z" fill="#253D4E"/>
<path d="M39.0023 21.5881L38.9315 21.4526C38.687 20.9842 38.1091 20.8027 37.6411 21.0473C37.1727 21.2918 36.9913 21.8695 37.2357 22.3378L37.3065 22.4734C37.477 22.8004 37.8102 22.9876 38.1551 22.9876C38.3043 22.9876 38.4556 22.9526 38.597 22.8786C39.0653 22.6342 39.2467 22.0564 39.0023 21.5881Z" fill="#253D4E"/>
<path d="M33.05 40.6179L30.2051 37.7727C29.8315 37.3992 29.2258 37.3991 28.8526 37.7727C28.4789 38.1462 28.4789 38.7518 28.8524 39.1252L31.6973 41.9703C31.8842 42.1572 32.1288 42.2505 32.3737 42.2505C32.6183 42.2505 32.8632 42.1572 33.05 41.9705C33.4236 41.5969 33.4236 40.9913 33.05 40.6179Z" fill="#253D4E"/>
<path d="M41.5044 38.8353C41.1982 38.4051 40.6012 38.3043 40.1706 38.6108L30.2416 45.6796C29.8114 45.9859 29.7108 46.5832 30.0172 47.0135C30.2037 47.2757 30.4981 47.4153 30.7972 47.4153C30.9889 47.4153 31.1828 47.3577 31.351 47.2379L41.2799 40.1691C41.7102 39.8628 41.8107 39.2656 41.5044 38.8353Z" fill="#253D4E"/>
<path d="M45.0137 40.278C44.7076 39.8478 44.1104 39.7471 43.6798 40.0536L39.8686 42.767C39.4382 43.0735 39.3379 43.6706 39.6442 44.1009C39.8307 44.3631 40.1251 44.5028 40.4241 44.5028C40.616 44.5028 40.8097 44.4451 40.978 44.3253L44.7893 41.6119C45.2196 41.3056 45.32 40.7084 45.0137 40.278Z" fill="#253D4E"/>
<path d="M65.5621 35.9382C65.253 35.5097 64.6553 35.413 64.2267 35.7217L63.9081 35.9514C63.9095 35.8694 63.9113 35.7875 63.9113 35.7053C63.9113 34.7929 63.5563 33.9343 62.9097 33.286C62.2633 32.6411 61.4046 32.2861 60.4922 32.2861H60.2091C61.2588 30.2579 61.7918 27.8157 61.7918 24.9964C61.7918 19.4673 59.7192 13.4236 56.5117 9.59962C56.172 9.19479 55.5688 9.1418 55.1641 9.48151C54.7595 9.82104 54.7066 10.4244 55.046 10.829C57.9819 14.3289 59.879 19.8901 59.879 24.9964C59.879 27.9392 59.2464 30.3885 57.9988 32.2861H56.1051L56.9464 31.6871C57.3769 31.3808 57.4773 30.7835 57.171 30.3532C56.8647 29.9229 56.2678 29.8222 55.8371 30.1288L52.807 32.2861H47.1176C47.6909 29.3818 47.0937 26.1372 45.3609 22.8181C44.1206 20.4429 42.359 18.1447 40.3327 16.1976C42.4198 10.9184 45.8738 7.54126 49.2394 7.54126C50.2558 7.54126 51.2801 7.837 52.2837 8.42058C52.7404 8.68582 53.3259 8.53087 53.5914 8.07434C53.8568 7.61765 53.7019 7.03216 53.2452 6.76664C51.9457 6.01127 50.598 5.6283 49.2394 5.6283C45.1677 5.6283 41.2525 9.12698 38.8181 14.8493C37.9889 14.167 37.1296 13.5466 36.2542 13.0061C32.1338 10.4614 28.2321 9.91221 25.2682 11.4595C22.5343 12.8883 20.7832 16.0563 20.3371 20.3799C20.2828 20.9054 20.6649 21.3753 21.1902 21.4294C21.717 21.4845 22.1857 21.1015 22.2397 20.5762C22.6179 16.9121 24.0079 14.2765 26.1536 13.155C31.3778 10.4277 40.0055 16.6958 43.6652 23.7035C45.2929 26.8214 45.7936 29.7046 45.16 32.2862H34.436C34.4333 32.2862 34.4308 32.2862 34.4281 32.2862H29.5269L27.9216 30.681C27.5479 30.3076 26.9424 30.3076 26.5689 30.681C26.1954 31.0546 26.1954 31.6602 26.5689 32.0337L26.8213 32.2861H24.1954C23.13 29.8647 22.4296 27.0841 22.2124 24.3867C22.1701 23.8602 21.7094 23.4665 21.1824 23.5101C20.6558 23.5524 20.2634 24.0135 20.3057 24.5401C20.4821 26.7321 20.9346 28.9133 21.6329 30.9717C18.9068 28.6487 15.346 27.4003 11.6799 27.5995C11.3382 27.6181 11.0323 27.8179 10.8782 28.1234C9.43974 30.9715 9.03532 34.1863 9.63186 37.2307C9.63747 37.3231 9.65571 37.4117 9.6856 37.4949C9.87303 38.3636 10.1434 39.2166 10.4943 40.0421C6.40038 40.6771 2.76486 43.0902 0.585741 46.6847C0.408345 46.9773 0.400949 47.3424 0.566102 47.6422C2.10731 50.4393 4.53665 52.5882 7.39067 53.8127C7.4668 53.8573 7.54625 53.8911 7.628 53.9128C9.20417 54.5554 10.9038 54.9185 12.6516 54.9546C12.7474 54.9566 12.8421 54.9575 12.9376 54.9575C13.618 54.9575 14.292 54.9061 14.956 54.8096C15.0186 54.8058 15.0807 54.7978 15.141 54.7822C17.9523 54.3349 20.5659 53.044 22.6293 51.1043C22.6761 51.1113 22.7236 51.1161 22.7723 51.1161H27.0642C27.5925 51.1161 28.0207 50.688 28.0207 50.1597C28.0207 49.6313 27.5925 49.2032 27.0642 49.2032H24.318C24.5689 48.863 24.8068 48.5109 25.0282 48.1455C25.035 48.1343 25.0404 48.1226 25.0467 48.1113C25.0524 48.1009 25.0593 48.0915 25.0647 48.0808C27.2925 43.6672 27.0404 38.3737 24.4227 34.199H28.7342L31.3383 36.8031C31.5251 36.9898 31.7699 37.0832 32.0147 37.0832C32.2594 37.0832 32.5043 36.9898 32.6911 36.8031C33.0646 36.4294 33.0646 35.824 32.6911 35.4503L31.4398 34.199H34.0359L37.5869 37.75C37.7738 37.9368 38.0186 38.0301 38.2633 38.0301C38.5081 38.0301 38.753 37.9368 38.9398 37.75C39.3133 37.3764 39.3133 36.7708 38.9398 36.3973L36.7416 34.1992H45.8785L45.8816 34.1994L45.8848 34.1992H50.1203L48.0321 35.6858C47.6017 35.9921 47.5013 36.5893 47.8076 37.0196C47.9942 37.2819 48.2885 37.4215 48.5876 37.4215C48.7794 37.4215 48.9731 37.3638 49.1415 37.244L53.4183 34.199H58.4971L58.4988 34.1992L58.501 34.199H60.4929C60.8952 34.199 61.2741 34.3558 61.5577 34.6385C61.8423 34.9238 61.999 35.3027 61.999 35.7052C61.999 36.281 61.9626 36.8483 61.8922 37.4054L54.8691 42.4694C54.4408 42.7784 54.3438 43.3762 54.6527 43.8048C54.8398 44.0641 55.1325 44.2019 55.4294 44.2019C55.6232 44.2019 55.8189 44.1432 55.9881 44.0212L61.2085 40.2572C60.1655 43.1595 58.1551 45.604 55.5678 47.2004L44.9011 36.5337C44.5274 36.1603 43.9219 36.1603 43.5483 36.5337C43.1748 36.9074 43.1748 37.5129 43.5483 37.8865L53.7864 48.1245C52.4 48.7168 50.8951 49.083 49.318 49.1775L45.1481 45.0078C44.7747 44.6344 44.169 44.6342 43.7955 45.0079C43.422 45.3815 43.422 45.987 43.7956 46.3605L46.6381 49.2029H37.2744L35.7397 47.6684C35.3661 47.2949 34.7606 47.2949 34.387 47.6684C34.0135 48.042 34.0135 48.6476 34.387 49.0211L34.5689 49.2029H31.0492C30.5208 49.2029 30.0927 49.6311 30.0927 50.1594C30.0927 50.6878 30.5208 51.1159 31.0492 51.1159H36.481L38.6383 53.2732C38.8251 53.4599 39.07 53.5533 39.3148 53.5533C39.5594 53.5533 39.8043 53.4599 39.9911 53.2732C40.3647 52.8996 40.3647 52.2941 39.9911 51.9205L39.1865 51.1159H48.4992C50.9106 51.1159 53.1941 50.5587 55.2285 49.5673L56.032 50.3708C56.2188 50.5575 56.4637 50.6508 56.7084 50.6508C56.9531 50.6508 57.198 50.5575 57.3848 50.3708C57.7584 49.9971 57.7584 49.3916 57.3848 49.018L56.9517 48.5849C60.4002 46.3146 62.8872 42.6986 63.6587 38.4898L65.3458 37.2734C65.7741 36.9645 65.871 36.3668 65.5621 35.9382ZM22.6811 35.0235C22.7884 35.1877 22.8898 35.3546 22.9885 35.5228L20.5674 40.327L17.8029 36.0969L19.7377 31.9066C20.8803 32.7531 21.8826 33.8018 22.6811 35.0235ZM19.52 42.221L14.247 42.4865C13.8915 42.0765 13.5609 41.6411 13.2599 41.1804C12.6309 40.218 12.151 39.183 11.8204 38.1094L16.7801 38.0284L19.52 42.221ZM18.1028 30.8839L16.5682 34.2073L13.5181 29.5402C15.131 29.6834 16.6882 30.1463 18.1028 30.8839ZM11.9162 30.5856L15.5431 36.1354L11.3958 36.2031C11.1333 34.3305 11.3039 32.4036 11.9162 30.5856ZM11.4218 41.8514C11.4987 41.9773 11.5774 42.1026 11.6584 42.2268C12.0835 42.8771 12.5587 43.4843 13.076 44.0468C13.1138 44.096 13.1562 44.1411 13.2025 44.182C14.0617 45.092 15.0335 45.8789 16.0884 46.5265L11.0561 46.423L8.68344 42.4548C9.56204 42.1513 10.4799 41.9472 11.4218 41.8514ZM6.91548 43.2254L8.79937 46.3765L3.2227 46.2618C4.25034 45.0067 5.50767 43.9781 6.91548 43.2254ZM7.52928 51.773C5.83504 50.9332 4.34026 49.7053 3.18482 48.1743L9.81301 48.3106L7.52928 51.773ZM14.3257 52.9637C13.7866 53.026 13.2405 53.053 12.6904 53.0421C11.541 53.0183 10.4156 52.8306 9.34288 52.4978L12.074 48.357L17.0812 48.46L14.3257 52.9637ZM16.9338 52.3662L19.2959 48.5056L22.1994 48.5653C22.2591 48.5708 22.319 48.5747 22.3789 48.5794C20.9395 50.3267 19.0465 51.6319 16.9338 52.3662ZM22.3111 46.6544C20.0919 46.4369 17.982 45.614 16.21 44.3031L20.7317 44.0753L22.4185 46.6566L22.3111 46.6544ZM24.0253 45.6184L21.7768 42.1778L24.0086 37.7492C24.8723 40.2845 24.8866 43.0593 24.0253 45.6184Z" fill="#253D4E"/>
<path d="M56.175 37.578C55.866 37.1495 55.2682 37.0529 54.8398 37.3617L51.4693 39.7921C51.0409 40.101 50.944 40.6987 51.253 41.1273C51.44 41.3866 51.7327 41.5244 52.0295 41.5244C52.2235 41.5244 52.4191 41.4657 52.5882 41.3436L55.9588 38.9133C56.3872 38.6044 56.4841 38.0066 56.175 37.578Z" fill="#253D4E"/>
</g>
<path d="M80.0019 51.2209L79.9928 46.9871L77.8941 50.4909H77.3649L75.2662 47.0418V51.2209H74.1348V44.8337H75.1111L77.6477 49.0675L80.1388 44.8337H81.1151L81.1242 51.2209H80.0019ZM87.9049 49.7427H84.7113L84.0814 51.2209H82.8587L85.7326 44.8337H86.9012L89.7842 51.2209H88.5436L87.9049 49.7427ZM87.5123 48.812L86.3077 46.0199L85.1123 48.812H87.5123ZM95.6885 51.2209L94.3834 49.3504C94.3281 49.3565 94.2461 49.3595 94.1373 49.3595H92.6949V51.2209H91.5087V44.8337H94.1373C94.6906 44.8337 95.1711 44.9249 95.5788 45.1074C95.9923 45.2899 96.3088 45.5515 96.5273 45.8921C96.7466 46.2328 96.8562 46.6373 96.8562 47.1057C96.8562 47.5863 96.7374 47.9999 96.5005 48.3467C96.2686 48.6934 95.9346 48.9519 95.4968 49.1222L96.9659 51.2209H95.6885ZM95.6608 47.1057C95.6608 46.6981 95.5269 46.3849 95.259 46.1659C94.9911 45.9469 94.5994 45.8374 94.082 45.8374H92.6949V48.3832H94.082C94.5994 48.3832 94.9911 48.2737 95.259 48.0547C95.5269 47.8296 95.6608 47.5133 95.6608 47.1057ZM100.302 45.8374H98.1856V44.8337H103.605V45.8374H101.488V51.2209H100.302V45.8374ZM113.633 51.3213L112.829 50.5457C112.233 51.0567 111.518 51.3122 110.685 51.3122C110.241 51.3122 109.843 51.2392 109.49 51.0932C109.137 50.9472 108.861 50.7464 108.66 50.4909C108.459 50.2293 108.358 49.9343 108.358 49.6059C108.358 49.2105 108.474 48.8637 108.706 48.5656C108.937 48.2615 109.313 47.9634 109.837 47.6714C109.581 47.4159 109.399 47.1787 109.289 46.9597C109.18 46.7346 109.125 46.5035 109.125 46.2662C109.125 45.8161 109.293 45.4541 109.627 45.1804C109.967 44.9006 110.418 44.7607 110.978 44.7607C111.494 44.7607 111.908 44.8884 112.218 45.1439C112.529 45.3933 112.684 45.734 112.684 46.1659C112.684 46.4944 112.58 46.7863 112.373 47.0418C112.173 47.2973 111.842 47.5558 111.379 47.8174L112.757 49.1314C112.909 48.8333 113.028 48.4744 113.112 48.0547L114.034 48.3558C113.913 48.9215 113.721 49.4081 113.459 49.8157L114.263 50.5822L113.633 51.3213ZM110.978 45.5728C110.728 45.5728 110.531 45.6366 110.384 45.7644C110.238 45.886 110.166 46.0473 110.166 46.248C110.166 46.394 110.205 46.5339 110.284 46.6677C110.363 46.7955 110.515 46.9719 110.74 47.197C111.105 46.9962 111.358 46.8228 111.497 46.6769C111.643 46.5247 111.717 46.3605 111.717 46.1841C111.717 45.9955 111.65 45.8465 111.516 45.737C111.388 45.6275 111.209 45.5728 110.978 45.5728ZM110.768 50.3814C111.297 50.3814 111.759 50.2202 112.155 49.8978L110.466 48.2828C110.101 48.4835 109.843 48.6782 109.691 48.8668C109.544 49.0493 109.472 49.2561 109.472 49.4872C109.472 49.7549 109.591 49.9708 109.827 50.1351C110.065 50.2993 110.378 50.3814 110.768 50.3814ZM123.993 47.9543H125.115V50.5001C124.787 50.7617 124.403 50.9624 123.966 51.1023C123.528 51.2422 123.077 51.3122 122.615 51.3122C121.964 51.3122 121.377 51.1723 120.854 50.8924C120.331 50.6065 119.921 50.2142 119.623 49.7153C119.324 49.2165 119.175 48.6539 119.175 48.0273C119.175 47.4007 119.324 46.8381 119.623 46.3392C119.921 45.8404 120.331 45.4511 120.854 45.1713C121.383 44.8854 121.977 44.7424 122.634 44.7424C123.169 44.7424 123.655 44.8307 124.094 45.007C124.531 45.1834 124.899 45.442 125.197 45.7826L124.449 46.5126C123.962 46.026 123.375 45.7826 122.688 45.7826C122.238 45.7826 121.837 45.8769 121.484 46.0655C121.137 46.2541 120.863 46.5187 120.662 46.8593C120.468 47.2 120.37 47.5893 120.37 48.0273C120.37 48.4531 120.468 48.8364 120.662 49.177C120.863 49.5176 121.137 49.7853 121.484 49.98C121.837 50.1746 122.235 50.272 122.679 50.272C123.178 50.272 123.616 50.1625 123.993 49.9435V47.9543ZM131.771 51.2209L130.467 49.3504C130.411 49.3565 130.329 49.3595 130.22 49.3595H128.778V51.2209H127.592V44.8337H130.22C130.774 44.8337 131.254 44.9249 131.662 45.1074C132.076 45.2899 132.392 45.5515 132.611 45.8921C132.83 46.2328 132.94 46.6373 132.94 47.1057C132.94 47.5863 132.821 47.9999 132.584 48.3467C132.352 48.6934 132.018 48.9519 131.58 49.1222L133.048 51.2209H131.771ZM131.744 47.1057C131.744 46.6981 131.61 46.3849 131.342 46.1659C131.074 45.9469 130.683 45.8374 130.165 45.8374H128.778V48.3832H130.165C130.683 48.3832 131.074 48.2737 131.342 48.0547C131.61 47.8296 131.744 47.5133 131.744 47.1057ZM138.162 51.3122C137.512 51.3122 136.925 51.1723 136.402 50.8924C135.879 50.6065 135.468 50.2142 135.17 49.7153C134.872 49.2105 134.723 48.6478 134.723 48.0273C134.723 47.4068 134.872 46.8472 135.17 46.3484C135.468 45.8435 135.879 45.4511 136.402 45.1713C136.925 44.8854 137.512 44.7424 138.162 44.7424C138.814 44.7424 139.4 44.8854 139.924 45.1713C140.447 45.4511 140.857 45.8404 141.156 46.3392C141.454 46.8381 141.603 47.4007 141.603 48.0273C141.603 48.6539 141.454 49.2165 141.156 49.7153C140.857 50.2142 140.447 50.6065 139.924 50.8924C139.4 51.1723 138.814 51.3122 138.162 51.3122ZM138.162 50.272C138.588 50.272 138.972 50.1777 139.313 49.9891C139.653 49.7945 139.92 49.5267 140.115 49.1861C140.31 48.8394 140.407 48.4531 140.407 48.0273C140.407 47.6015 140.31 47.2182 140.115 46.8776C139.92 46.5309 139.653 46.2632 139.313 46.0746C138.972 45.88 138.588 45.7826 138.162 45.7826C137.737 45.7826 137.354 45.88 137.013 46.0746C136.672 46.2632 136.404 46.5309 136.21 46.8776C136.015 47.2182 135.918 47.6015 135.918 48.0273C135.918 48.4531 136.015 48.8394 136.21 49.1861C136.404 49.5267 136.672 49.7945 137.013 49.9891C137.354 50.1777 137.737 50.272 138.162 50.272ZM146.729 51.3122C146.084 51.3122 145.5 51.1723 144.976 50.8924C144.46 50.6065 144.052 50.2142 143.754 49.7153C143.462 49.2165 143.316 48.6539 143.316 48.0273C143.316 47.4007 143.465 46.8381 143.764 46.3392C144.062 45.8404 144.469 45.4511 144.986 45.1713C145.509 44.8854 146.093 44.7424 146.738 44.7424C147.261 44.7424 147.738 44.8337 148.17 45.0162C148.602 45.1987 148.967 45.4633 149.265 45.81L148.499 46.5309C148.037 46.032 147.468 45.7826 146.793 45.7826C146.354 45.7826 145.963 45.88 145.615 46.0746C145.269 46.2632 144.998 46.5278 144.803 46.8685C144.609 47.2091 144.512 47.5954 144.512 48.0273C144.512 48.4592 144.609 48.8455 144.803 49.1861C144.998 49.5267 145.269 49.7945 145.615 49.9891C145.963 50.1777 146.354 50.272 146.793 50.272C147.468 50.272 148.037 50.0195 148.499 49.5146L149.265 50.2446C148.967 50.5913 148.6 50.8559 148.162 51.0384C147.73 51.2209 147.252 51.3122 146.729 51.3122ZM156.105 50.2263V51.2209H151.314V44.8337H155.977V45.8283H152.501V47.4889H155.584V48.4653H152.501V50.2263H156.105ZM162.518 51.2209L161.214 49.3504C161.159 49.3565 161.077 49.3595 160.967 49.3595H159.526V51.2209H158.339V44.8337H160.967C161.521 44.8337 162.002 44.9249 162.41 45.1074C162.823 45.2899 163.14 45.5515 163.358 45.8921C163.577 46.2328 163.687 46.6373 163.687 47.1057C163.687 47.5863 163.568 47.9999 163.331 48.3467C163.099 48.6934 162.765 48.9519 162.327 49.1222L163.796 51.2209H162.518ZM162.492 47.1057C162.492 46.6981 162.358 46.3849 162.09 46.1659C161.822 45.9469 161.43 45.8374 160.913 45.8374H159.526V48.3832H160.913C161.43 48.3832 161.822 48.2737 162.09 48.0547C162.358 47.8296 162.492 47.5133 162.492 47.1057ZM168.593 48.9671V51.2209H167.406V48.9854L164.897 44.8337H166.166L168.036 47.9452L169.925 44.8337H171.093L168.593 48.9671Z" fill="#253D4E"/>
<path d="M98.9204 6.14191C99.6637 6.14191 100.268 6.38969 100.733 6.88527C101.197 7.38085 101.429 8.00032 101.429 8.74368V35.83C101.429 36.6353 101.15 37.3167 100.593 37.8742C100.066 38.4008 99.4009 38.6641 98.5956 38.6641C98.1929 38.6641 97.7744 38.6021 97.3407 38.4782C96.9381 38.3234 96.6283 38.122 96.4115 37.8742L78.1527 14.6906L79.3606 13.9472V36.0623C79.3606 36.8057 79.1128 37.4251 78.6173 37.9207C78.1527 38.4163 77.5332 38.6641 76.7589 38.6641C76.0155 38.6641 75.4115 38.4163 74.9469 37.9207C74.4823 37.4251 74.25 36.8057 74.25 36.0623V8.97598C74.25 8.17067 74.5133 7.50474 75.0398 6.97819C75.5974 6.42067 76.2788 6.14191 77.0841 6.14191C77.5177 6.14191 77.9668 6.23483 78.4314 6.42067C78.896 6.57554 79.2367 6.82332 79.4535 7.16403L97.1549 29.7437L96.3647 30.3012V8.74368C96.3647 8.00032 96.5974 7.38085 97.062 6.88527C97.5266 6.38969 98.146 6.14191 98.9204 6.14191ZM119.407 39.1287C116.775 39.1287 114.482 38.5866 112.531 37.5026C110.611 36.3875 109.124 34.8853 108.071 32.9959C107.049 31.1065 106.537 28.9694 106.537 26.5844C106.537 23.7968 107.095 21.4273 108.21 19.476C109.356 17.4937 110.843 15.976 112.67 14.9229C114.498 13.8698 116.434 13.3432 118.478 13.3432C120.058 13.3432 121.544 13.6685 122.938 14.3189C124.363 14.9693 125.617 15.8676 126.701 17.0136C127.785 18.1286 128.637 19.4295 129.257 20.9163C129.907 22.403 130.232 23.9826 130.232 25.6552C130.201 26.3986 129.907 27.0025 129.35 27.4672C128.792 27.9318 128.142 28.1641 127.398 28.1641H109.651L108.257 23.518H125.307L124.285 24.4472V23.1928C124.223 22.2946 123.898 21.4893 123.31 20.7769C122.752 20.0645 122.04 19.507 121.173 19.1043C120.336 18.6707 119.438 18.4539 118.478 18.4539C117.549 18.4539 116.682 18.5778 115.876 18.8255C115.071 19.0733 114.374 19.4915 113.785 20.08C113.197 20.6685 112.732 21.4583 112.391 22.4494C112.051 23.4406 111.881 24.695 111.881 26.2127C111.881 27.8853 112.221 29.3101 112.903 30.4871C113.615 31.6331 114.513 32.5158 115.598 33.1353C116.713 33.7238 117.89 34.018 119.128 34.018C120.275 34.018 121.188 33.9251 121.869 33.7393C122.551 33.5534 123.093 33.3366 123.496 33.0888C123.929 32.8101 124.316 32.5778 124.657 32.3919C125.214 32.1132 125.741 31.9738 126.236 31.9738C126.918 31.9738 127.475 32.2061 127.909 32.6707C128.374 33.1353 128.606 33.6773 128.606 34.2968C128.606 35.1331 128.173 35.8919 127.305 36.5734C126.5 37.2548 125.369 37.8588 123.913 38.3853C122.458 38.8809 120.956 39.1287 119.407 39.1287ZM133.423 34.8079C133.113 34.3742 132.974 33.8167 133.005 33.1353C133.036 32.4539 133.438 31.8654 134.213 31.3698C134.708 31.0601 135.235 30.9362 135.792 30.9981C136.35 31.0291 136.892 31.3079 137.419 31.8344C138.317 32.7326 139.261 33.4295 140.252 33.9251C141.244 34.4207 142.482 34.6685 143.969 34.6685C144.434 34.6375 144.945 34.5756 145.503 34.4826C146.06 34.3587 146.54 34.111 146.943 33.7393C147.376 33.3366 147.593 32.7326 147.593 31.9273C147.593 31.2459 147.361 30.7039 146.897 30.3012C146.432 29.8986 145.813 29.5579 145.038 29.2791C144.295 29.0003 143.459 28.7371 142.529 28.4893C141.569 28.2105 140.578 27.9008 139.556 27.5601C138.565 27.2194 137.651 26.7857 136.814 26.2592C135.978 25.7017 135.297 24.9738 134.77 24.0756C134.244 23.1773 133.981 22.0468 133.981 20.684C133.981 19.1353 134.414 17.8189 135.282 16.7348C136.149 15.6508 137.264 14.8145 138.627 14.226C140.021 13.6375 141.476 13.3432 142.994 13.3432C143.954 13.3432 144.96 13.4671 146.013 13.7149C147.067 13.9317 148.074 14.3034 149.034 14.83C149.994 15.3255 150.799 15.9915 151.45 16.8278C151.79 17.2924 151.991 17.8499 152.053 18.5003C152.115 19.1508 151.821 19.7393 151.171 20.2658C150.706 20.6375 150.164 20.8079 149.544 20.7769C148.925 20.7149 148.414 20.4981 148.012 20.1264C147.485 19.445 146.773 18.903 145.875 18.5003C145.007 18.0977 144 17.8963 142.854 17.8963C142.39 17.8963 141.879 17.9583 141.321 18.0822C140.795 18.1751 140.33 18.4074 139.928 18.7791C139.525 19.1198 139.323 19.6773 139.323 20.4517C139.323 21.164 139.556 21.7371 140.021 22.1707C140.485 22.5733 141.105 22.914 141.879 23.1928C142.684 23.4406 143.536 23.6884 144.434 23.9362C145.363 24.184 146.308 24.4782 147.268 24.8189C148.228 25.1596 149.111 25.6087 149.916 26.1663C150.721 26.7238 151.372 27.4517 151.867 28.3499C152.363 29.2172 152.611 30.3322 152.611 31.695C152.611 33.2747 152.146 34.622 151.217 35.7371C150.288 36.8521 149.127 37.7039 147.733 38.2924C146.339 38.8499 144.914 39.1287 143.459 39.1287C141.631 39.1287 139.804 38.8189 137.976 38.1995C136.149 37.549 134.631 36.4185 133.423 34.8079ZM157.537 14.2724H168.548C169.291 14.2724 169.911 14.5202 170.406 15.0158C170.902 15.5114 171.15 16.1309 171.15 16.8742C171.15 17.5866 170.902 18.1906 170.406 18.6862C169.911 19.1508 169.291 19.3831 168.548 19.3831H157.537C156.794 19.3831 156.174 19.1353 155.679 18.6397C155.183 18.1441 154.936 17.5247 154.936 16.7813C154.936 16.0689 155.183 15.4804 155.679 15.0158C156.174 14.5202 156.794 14.2724 157.537 14.2724ZM162.508 8.46492C163.313 8.46492 163.964 8.74368 164.459 9.3012C164.986 9.82775 165.25 10.4937 165.25 11.299V31.9738C165.25 32.4074 165.327 32.7636 165.482 33.0424C165.667 33.3211 165.9 33.5225 166.179 33.6464C166.489 33.7703 166.813 33.8322 167.154 33.8322C167.526 33.8322 167.867 33.7703 168.176 33.6464C168.486 33.4915 168.843 33.4141 169.245 33.4141C169.679 33.4141 170.066 33.6154 170.406 34.018C170.778 34.4207 170.964 34.9782 170.964 35.6906C170.964 36.5579 170.484 37.2703 169.524 37.8278C168.595 38.3853 167.588 38.6641 166.504 38.6641C165.853 38.6641 165.126 38.6176 164.32 38.5247C163.546 38.4008 162.803 38.1375 162.09 37.7349C161.409 37.3012 160.836 36.6508 160.371 35.7835C159.906 34.9163 159.674 33.7238 159.674 32.2061V11.299C159.674 10.4937 159.937 9.82775 160.464 9.3012C161.021 8.74368 161.703 8.46492 162.508 8.46492Z" fill="#3BB77E"/>
</g>
</g>
<defs>
<clipPath id="clip0_6511_24">
<rect width="180" height="55.25" fill="white" transform="translate(0.4375 0.156494)"/>
</clipPath>
<clipPath id="clip1_6511_24">
<rect width="179.981" height="55.25" fill="white" transform="translate(0.447266 0.156494)"/>
</clipPath>
</defs>
</svg>
